<svg xmlns="http://www.w3.org/2000/svg" viewBox="0 0 16 16">
  <g fill="none" fill-rule="evenodd">
    <path stroke="#000" d="M4.37121212,14.285245 C5.53278292,14.9558782 8.28010542,12.8178735 10.2962795,9.32575758 C12.3124535,5.83364167 12.7903587,2.38538824 11.6287879,1.71475502 C10.4672171,1.04412181 7.71989458,3.18212652 5.70372052,6.67424242 C3.68754646,10.1663583 3.20964133,13.6146118 4.37121212,14.285245 Z"/>
    <path stroke="#000" d="M11.6287879,14.285245 C12.7903587,13.6146118 12.3124535,10.1663583 10.2962795,6.67424242 C8.28010542,3.18212652 5.53278292,1.04412181 4.37121212,1.71475502 C3.20964133,2.38538824 3.68754646,5.83364167 5.70372052,9.32575758 C7.71989458,12.8178735 10.4672171,14.9558782 11.6287879,14.285245 Z"/>
    <path stroke="#000" d="M15.2575758,8 C15.2575758,6.65873358 12.0323481,5.34848485 8,5.34848485 C3.96765188,5.34848485 0.742424242,6.65873358 0.742424242,8 C0.742424242,9.34126642 3.96765188,10.6515152 8,10.6515152 C12.0323481,10.6515152 15.2575758,9.34126642 15.2575758,8 Z"/>
    <circle cx="8" cy="8" r="1.455" fill="#000"/>
  </g>
</svg>
