<svg xmlns="http://www.w3.org/2000/svg" xmlns:xlink="http://www.w3.org/1999/xlink" width="190" height="190" viewBox="0 0 190 190">
  <defs>
    <polygon id="react-a" points="0 0 120 0 100 198 0 198"/>
    <polygon id="react-c" points="40 0 120 0 120 198 0 198"/>
  </defs>
  <g fill="none" fill-rule="evenodd">
    <g transform="rotate(-9 59.381 130.601)">
      <mask id="react-b" fill="#fff">
        <use xlink:href="#react-a"/>
      </mask>
      <path fill="#252932" fill-rule="nonzero" stroke="#EBEDF2" stroke-width="3" d="M99.8626623,63.4157606 C151.642585,63.4157606 193.618506,80.4666554 193.618506,101.5 C193.618506,122.533345 151.642585,139.584239 99.8626623,139.584239 C48.0827394,139.584239 6.10681818,122.533345 6.10681818,101.5 C6.10681818,80.4666554 48.0827394,63.4157606 99.8626623,63.4157606 Z M99.8626623,133.725126 C148.688776,133.725126 187.758766,117.854639 187.758766,101.5 C187.758766,85.1453608 148.688776,69.2748744 99.8626623,69.2748744 C51.0365486,69.2748744 11.9665584,85.1453608 11.9665584,101.5 C11.9665584,117.854639 51.0365486,133.725126 99.8626623,133.725126 Z" mask="url(#react-b)"/>
      <path fill="#252932" fill-rule="nonzero" stroke="#EBEDF2" stroke-width="3" d="M132.848108,120.54212 C106.958146,165.380054 71.2020988,193.202934 52.9847403,182.686262 C34.7673817,172.169589 40.9872554,127.295815 66.8772168,82.4578803 C92.7671783,37.6199461 128.523226,9.79706607 146.740584,20.3137384 C164.957943,30.8304107 158.738069,75.7041855 132.848108,120.54212 Z M71.9519008,85.3874372 C47.5388439,127.667571 41.7495629,169.434801 55.9146104,177.61212 C70.0796579,185.78944 103.360367,159.892697 127.773424,117.612563 C152.186481,75.3324289 157.975762,33.5651993 143.810714,25.3878797 C129.645667,17.2105601 96.3649576,43.1073033 71.9519008,85.3874372 Z" mask="url(#react-b)"/>
      <path fill="#252932" fill-rule="nonzero" stroke="#EBEDF2" stroke-width="3" d="M132.848108,82.4578803 C158.738069,127.295815 164.957943,172.169589 146.740584,182.686262 C128.523226,193.202934 92.7671783,165.380054 66.8772168,120.54212 C40.9872554,75.7041855 34.7673817,30.8304107 52.9847403,20.3137384 C71.2020988,9.79706607 106.958146,37.6199461 132.848108,82.4578803 Z M71.9519008,117.612563 C96.3649576,159.892697 129.645667,185.78944 143.810714,177.61212 C157.975762,169.434801 152.186481,127.667571 127.773424,85.3874372 C103.360367,43.1073033 70.0796579,17.2105601 55.9146104,25.3878797 C41.7495629,33.5651993 47.5388439,75.3324289 71.9519008,117.612563 Z" mask="url(#react-b)"/>
    </g>
    <g transform="rotate(-9 32.087 -378.647)">
      <mask id="react-d" fill="#fff">
        <use xlink:href="#react-c"/>
      </mask>
      <path fill="#252932" fill-rule="nonzero" stroke="#EBEDF2" stroke-width="3" d="M52.8481078,80.4578803 C78.7380693,125.295815 84.9579429,170.169589 66.7405844,180.686262 C48.5232259,191.202934 12.7671783,163.380054 -13.1227832,118.54212 C-39.0127446,73.7041855 -45.2326183,28.8304107 -27.0152597,18.3137384 C-8.79790122,7.79706607 26.9581464,35.6199461 52.8481078,80.4578803 Z M-8.04809925,115.612563 C16.3649576,157.892697 49.6456668,183.78944 63.8107143,175.61212 C77.9757618,167.434801 72.1864808,125.667571 47.7734239,83.3874372 C23.360367,41.1073033 -9.92034214,15.2105601 -24.0853896,23.3878797 C-38.2504371,31.5651993 -32.4611561,73.3324289 -8.04809925,115.612563 Z" mask="url(#react-d)"/>
      <path fill="#252932" fill-rule="nonzero" stroke="#EBEDF2" stroke-width="3" d="M52.8481078,118.54212 C26.9581464,163.380054 -8.79790122,191.202934 -27.0152597,180.686262 C-45.2326183,170.169589 -39.0127446,125.295815 -13.1227832,80.4578803 C12.7671783,35.6199461 48.5232259,7.79706607 66.7405844,18.3137384 C84.9579429,28.8304107 78.7380693,73.7041855 52.8481078,118.54212 Z M-8.04809925,83.3874372 C-32.4611561,125.667571 -38.2504371,167.434801 -24.0853896,175.61212 C-9.92034214,183.78944 23.360367,157.892697 47.7734239,115.612563 C72.1864808,73.3324289 77.9757618,31.5651993 63.8107143,23.3878797 C49.6456668,15.2105601 16.3649576,41.1073033 -8.04809925,83.3874372 Z" mask="url(#react-d)"/>
      <path fill="#252932" fill-rule="nonzero" stroke="#EBEDF2" stroke-width="3" d="M19.8626623,61.4157606 C71.6425853,61.4157606 113.618506,78.4666554 113.618506,99.5 C113.618506,120.533345 71.6425853,137.584239 19.8626623,137.584239 C-31.9172606,137.584239 -73.8931818,120.533345 -73.8931818,99.5 C-73.8931818,78.4666554 -31.9172606,61.4157606 19.8626623,61.4157606 Z M19.8626623,131.725126 C68.6887761,131.725126 107.758766,115.854639 107.758766,99.5 C107.758766,83.1453608 68.6887761,67.2748744 19.8626623,67.2748744 C-28.9634514,67.2748744 -68.0334416,83.1453608 -68.0334416,99.5 C-68.0334416,115.854639 -28.9634514,131.725126 19.8626623,131.725126 Z" mask="url(#react-d)"/>
    </g>
    <circle cx="94.88" cy="95.09" r="15" stroke="#252932" stroke-linecap="round" stroke-linejoin="round" stroke-width="3"/>
  </g>
</svg>
