<svg xmlns="http://www.w3.org/2000/svg" width="50" height="50" viewBox="0 0 50 50">
  <g fill="#4B67A5">
    <g transform="rotate(-9 44.93 21.97)">
      <path d="M24.7007006,11.701516 C38.453022,11.701516 49.6232912,16.2389526 49.6232912,21.9736842 C49.6232912,27.7084158 38.453022,32.2458525 24.7007006,32.2458525 C10.9483793,32.2458525 -0.221889952,27.7084158 -0.221889952,21.9736842 C-0.221889952,16.2389526 10.9483793,11.701516 24.7007006,11.701516 Z M24.7007006,30.2039804 C37.0484881,30.2039804 47.5812543,26.2140976 47.5812543,21.9736842 C47.5812543,17.7332708 37.0484881,13.743388 24.7007006,13.743388 C12.3529132,13.743388 1.82014696,17.7332708 1.82014696,21.9736842 C1.82014696,26.2140976 12.3529132,30.2039804 24.7007006,30.2039804 Z"/>
      <path d="M33.5975816,27.1097784 C26.7214232,39.0183607 17.2063317,46.4223459 12.2394154,43.555002 C7.27246963,40.6876412 8.92765335,28.7461861 15.8038197,16.8375901 C22.679978,4.92900774 32.1950695,-2.47497751 37.1619859,0.392366381 C42.1289316,3.25972723 40.4737479,15.2011823 33.5975816,27.1097784 Z M17.5722639,17.8585461 C11.3983753,28.5508916 9.58770723,39.666466 13.2604138,41.7866774 C16.9331507,43.9069063 25.6552404,36.7811822 31.8291373,26.0888223 C38.0030259,15.3964769 39.813694,4.28090241 36.1409875,2.16069101 C32.4682506,0.0404620877 23.7461609,7.16618626 17.5722639,17.8585461 Z"/>
      <path d="M33.5975816,16.8375901 C40.4737479,28.7461861 42.1289316,40.6876412 37.1619859,43.555002 C32.1950695,46.4223459 22.679978,39.0183607 15.8038197,27.1097784 C8.92765335,15.2011823 7.27246963,3.25972723 12.2394154,0.392366381 C17.2063317,-2.47497751 26.7214232,4.92900774 33.5975816,16.8375901 Z M17.5722639,26.0888223 C23.7461609,36.7811822 32.4682506,43.9069063 36.1409875,41.7866774 C39.813694,39.666466 38.0030259,28.5508916 31.8291373,17.8585461 C25.6552404,7.16618626 16.9331507,0.0404620877 13.2604138,2.16069101 C9.58770723,4.28090241 11.3983753,15.3964769 17.5722639,26.0888223 Z"/>
    </g>
    <path d="M24.9684203,29.9710517 C22.2360642,29.9710517 20.0210519,27.7560394 20.0210519,25.0236832 C20.0210519,22.2913271 22.2360642,20.0763148 24.9684203,20.0763148 C27.7007765,20.0763148 29.9157888,22.2913271 29.9157888,25.0236832 C29.9157888,27.7560394 27.7007765,29.9710517 24.9684203,29.9710517 Z M24.9684203,27.9710517 C26.596207,27.9710517 27.9157888,26.6514699 27.9157888,25.0236832 C27.9157888,23.3958966 26.596207,22.0763148 24.9684203,22.0763148 C23.3406337,22.0763148 22.0210519,23.3958966 22.0210519,25.0236832 C22.0210519,26.6514699 23.3406337,27.9710517 24.9684203,27.9710517 Z"/>
  </g>
</svg>
